#!OML:ASF I:\Actors\actors\Patient Classification 2\Patient 1\Session 1\actor1.ASF
:FULLY-SPECIFIED
:DEGREES
242
root -1.12028 18.331 5.87965 17.6248 -3.31473 -4.36019
lowerback 20.5378 -0.276717 -6.3375
upperback -2.63066 -2.64592 -4.47057
thorax -14.6041 -0.929477 -0.62914
lowerneck -14.8565 -6.19656 -6.27348
upperneck -14.315 -7.3236 2.36657
head -1.82564 -3.38352 1.58028
rclavicle 1.98785e-014 3.49861e-014
rhumerus -69.6006 0.958349 -102.5
rradius 114.25
rwrist 25.5514
rhand -6.70504 -43.4594
rfingers 7.12502
rthumb 19.1545 -72.5361
lclavicle 1.98785e-014 3.49861e-014
lhumerus -66.561 -3.75815 96.5742
lradius 130.842
lwrist -21.6397
lhand 21.5814 -1.02633
lfingers 7.12502
lthumb 46.0053 22.066
rfemur -25.4791 -8.61581 21.1837
rtibia 27.8173
rfoot -18.2891 2.40158
rtoes -11.7174
lfemur -32.1632 10.3487 -9.60867
ltibia 39.2539
lfoot -21.7417 1.96392
ltoes -58.066
243
root -1.11061 18.3375 5.88177 17.5633 -3.08134 -4.34752
lowerback 20.5051 -0.187418 -6.29817
upperback -2.4881 -2.47015 -4.26111
thorax -14.4082 -0.846587 -0.464936
lowerneck -14.9885 -5.74624 -5.77163
upperneck -13.9074 -6.81367 1.78433
head -1.72501 -3.15349 1.31482
rclavicle -2.38542e-014 -5.24792e-014
rhumerus -69.4931 1.14401 -102.357
rradius 114.331
rwrist 25.5474
rhand -6.79773 -43.6212
rfingers 7.12502
rthumb 19.0653 -72.7068
lclavicle -2.38542e-014 -5.24792e-014
lhumerus -66.1711 -3.6448 96.7245
lradius 130.702
lwrist -21.614
lhand 21.5084 -1.19468
lfingers 7.12502
lthumb 45.9375 21.9258
rfemur -25.2632 -8.66275 21.1482
rtibia 27.6122
rfoot -18.3573 2.22037
rtoes -11.9512
lfemur -32.1174 10.1965 -9.60699
ltibia 39.1919
lfoot -21.7113 1.84493
ltoes -57.9757
244
root -1.09794 18.3425 5.87873 17.5967 -2.56279 -4.26572
lowerback 20.4267 -0.231463 -6.15184
upperback -2.33563 -2.44079 -4.05835
thorax -14.1737 -0.840235 -0.322313
lowerneck -15.2085 -5.35174 -5.17458
upperneck -13.3365 -6.38834 1.12433
head -1.55566 -2.97277 1.00275
rclavicle -6.36111e-015 -1.59028e-014
rhumerus -69.3436 1.40798 -102.241
rradius 114.455
rwrist 25.2596
rhand -6.75474 -43.9869
rfingers 7.12502
rthumb 19.1067 -73.0684
lclavicle -6.36111e-015 -1.59028e-014
lhumerus -65.7507 -3.55065 96.8351
lradius 130.565
lwrist -21.6763
lhand 21.4231 -1.23076
lfingers 7.12502
lthumb 45.8584 21.9225
rfemur -25.1718 -8.93795 21.1222
rtibia 27.444
rfoot -18.4691 1.99447
rtoes -12.2548
lfemur -32.3016 9.82678 -9.64443
ltibia 39.1546
lfoot -21.6143 1.71757
ltoes -57.954
245
root -1.08319 18.3466 5.87179 17.6697 -1.95284 -4.23128
lowerback 20.4829 -0.284014 -5.74882
upperback -2.24449 -2.38784 -3.93191
thorax -14.1066 -0.843309 -0.420642
lowerneck -15.3303 -5.08557 -4.6881
upperneck -12.7126 -6.10621 0.709494
head -1.36637 -2.86062 0.786965
rclavicle -7.95139e-015 -2.70347e-014
rhumerus -69.3022 1.4449 -102.171
rradius 114.604
rwrist 25.0544
rhand -6.71905 -44.2925
rfingers 7.12502
rthumb 19.141 -73.3706
lclavicle -7.95139e-015 -2.70347e-014
lhumerus -65.4561 -3.72069 96.9028
lradius 130.466
lwrist -21.6833
lhand 21.3712 -1.20056
lfingers 7.12502
lthumb 45.8103 21.9726
rfemur -25.1609 -9.24358 21.169
rtibia 27.3424
rfoot -18.6253 1.7542
rtoes -12.3246
lfemur -32.5833 9.41385 -9.6191
ltibia 39.1555
lfoot -21.4955 1.56143
ltoes -57.8715
246
root -1.06796 18.3484 5.8605 17.7869 -1.32073 -4.24464
lowerback 20.5645 -0.345163 -5.28615
upperback -2.15832 -2.33085 -3.78374
thorax -14.0614 -0.847195 -0.529835
lowerneck -15.5418 -4.89019 -4.64018
upperneck -11.8864 -5.81625 0.805043
head -1.06903 -2.73002 0.800606
rclavicle 2.38542e-014 2.06736e-014
rhumerus -69.1921 1.4334 -102.143
rradius 114.63
rwrist 25.0352
rhand -6.87758 -44.3691
rfingers 7.12502
rthumb 18.9886 -73.4622
lclavicle 2.38542e-014 2.06736e-014
lhumerus -65.1257 -3.85163 97.017
lradius 130.382
lwrist -21.5764
lhand 21.5405 -1.18667
lfingers 7.12502
lthumb 45.9674 21.9215
rfemur -25.2533 -9.51364 21.282
rtibia 27.3021
rfoot -18.7847 1.47368
rtoes -12.2592
lfemur -32.958 9.04161 -9.54607
ltibia 39.1956
lfoot -21.3539 1.34707
ltoes -57.7315
247
root -1.05362 18.3481 5.8443 17.9226 -0.870907 -4.24128
lowerback 20.7137 -0.355754 -4.95308
upperback -2.12983 -2.24947 -3.63766
thorax -14.1207 -0.827288 -0.577152
lowerneck -15.8836 -4.71555 -4.86755
upperneck -10.7378 -5.4918 1.16417
head -0.633331 -2.57411 0.940482
rclavicle 1.27222e-014 -1.59028e-015
rhumerus -69.1006 1.4679 -102.141
rradius 114.556
rwrist 25.0769
rhand -7.11464 -44.3399
rfingers 7.12502
rthumb 18.7606 -73.4553
lclavicle 1.27222e-014 -1.59028e-015
lhumerus -64.9509 -3.88196 97.1503
lradius 130.359
lwrist -21.3983
lhand 21.7491 -1.22403
lfingers 7.12502
lthumb 46.1608 21.8032
rfemur -25.4369 -9.67491 21.3403
rtibia 27.31
rfoot -18.8654 1.23845
rtoes -12.2365
lfemur -33.3471 8.8253 -9.54645
ltibia 39.2671
lfoot -21.2178 1.1842
ltoes -57.6687
248
root -1.03825 18.3488 5.82757 18.0014 -0.495484 -4.20439
lowerback 20.997 -0.319446 -4.62909
upperback -2.11072 -2.12237 -3.52328
thorax -14.2721 -0.786099 -0.670333
lowerneck -16.0317 -4.57107 -4.80052
upperneck -9.79847 -5.28706 1.19354
head -0.311287 -2.48582 0.933452
rclavicle 1.82882e-014 1.27222e-014
rhumerus -69.1158 1.44668 -102.104
rradius 114.566
rwrist 25.1635
rhand -7.35532 -44.3181
rfingers 7.12502
rthumb 18.5291 -73.4556
lclavicle 1.82882e-014 1.27222e-014
lhumerus -64.8976 -4.03382 97.3039
lradius 130.324
lwrist -21.2327
lhand 21.7386 -1.31709
lfingers 7.12502
lthumb 46.1511 21.7143
rfemur -25.5992 -9.91095 21.3417
rtibia 27.3822
rfoot -18.8852 1.15253
rtoes -12.2158
lfemur -33.6704 8.6372 -9.60207
ltibia 39.37
lfoot -21.1035 1.09395
ltoes -57.7025
249
root -1.02163 18.3498 5.81008 18.0705 -0.0778505 -4.14248
lowerback 21.3113 -0.294755 -4.28587
upperback -2.04038 -2.00409 -3.42322
thorax -14.3812 -0.752606 -0.787753
lowerneck -16.058 -4.41348 -4.57044
upperneck -9.08491 -5.10751 1.08095
head -0.0895077 -2.413 0.85987
rclavicle -1.59028e-015 2.54444e-014
rhumerus -69.0669 1.34952 -101.971
rradius 114.6
rwrist 25.388
rhand -7.85926 -43.8845
rfingers 7.12502
rthumb 18.0443 -73.0675
lclavicle -1.59028e-015 2.54444e-014
lhumerus -64.753 -4.30177 97.4514
lradius 130.24
lwrist -21.154
lhand 21.5907 -1.32442
lfingers 7.12502
lthumb 46.014 21.7643
rfemur -25.7873 -10.2673 21.3364
rtibia 27.5525
rfoot -18.887 1.17243
rtoes -11.9854
lfemur -34.0171 8.43714 -9.68363
ltibia 39.5046
lfoot -20.9537 0.961297
ltoes -57.6906
250
root -1.00496 18.3485 5.79017 18.2152 0.284628 -4.08296
lowerback 21.5232 -0.260011 -4.02063
upperback -1.93104 -1.87719 -3.29446
thorax -14.379 -0.70942 -0.831184
lowerneck -16.1115 -4.20582 -4.38412
upperneck -8.37953 -4.85421 0.958666
head 0.134138 -2.30135 0.795182
rclavicle 2.14687e-014 4.6118e-014
rhumerus -68.8504 1.3004 -101.684
rradius 114.553
rwrist 25.6431
rhand -8.63581 -42.9498
rfingers 7.12502
rthumb 17.297 -72.2001
lclavicle 2.14687e-014 4.6118e-014
lhumerus -64.4882 -4.57101 97.6133
lradius 130.155
lwrist -21.058
lhand 21.4696 -1.28749
lfingers 7.12502
lthumb 45.9016 21.8479
rfemur -26.1206 -10.5616 21.3293
rtibia 27.8285
rfoot -18.8476 1.2174
rtoes -11.4682
lfemur -34.4628 8.32398 -9.79333
ltibia 39.6718
lfoot -20.7665 0.766867
ltoes -57.6047
251
root -0.989323 18.3456 5.76502 18.4109 0.560488 -3.9482
lowerback 21.7174 -0.187302 -3.88965
upperback -1.81093 -1.73213 -3.16063
thorax -14.3495 -0.647418 -0.798805
lowerneck -16.1863 -4.03246 -4.21587
upperneck -7.63237 -4.64304 0.807769
head 0.376968 -2.21098 0.722674
rclavicle 1.66979e-014 -1.74931e-014
rhumerus -68.6117 1.35128 -101.42
rradius 114.538
rwrist 25.7028
rhand -9.14429 -42.4826
rfingers 7.12502
rthumb 16.8075 -71.7752
lclavicle 1.66979e-014 -1.74931e-014
lhumerus -64.1943 -4.83695 97.8155
lradius 130.077
lwrist -20.9154
lhand 21.4227 -1.25908
lfingers 7.12502
lthumb 45.858 21.8943
rfemur -26.6058 -10.7892 21.2264
rtibia 28.2228
rfoot -18.7606 1.23861
rtoes -11.1658
lfemur -34.994 8.21403 -9.99697
ltibia 39.8914
lfoot -20.5897 0.627633
ltoes -57.5743
